<svg width="25" height="20" viewBox="0 0 25 20" fill="none" xmlns="http://www.w3.org/2000/svg">
<path d="M2.95218 9.75251C2.38853 9.24615 1.95194 8.6374 1.67168 7.9671C1.39142 7.29679 1.27397 6.58041 1.3272 5.866C1.38044 5.15159 1.60312 4.45566 1.98033 3.82487C2.35754 3.19408 2.88055 2.64301 3.51429 2.20862C4.14804 1.77423 4.87787 1.46655 5.65484 1.30622C6.43182 1.1459 7.23798 1.13662 8.01928 1.27901C8.80057 1.42141 9.53894 1.71219 10.1849 2.13185C10.8308 2.55152 11.3694 3.09037 11.7644 3.71227H13.2356C13.6306 3.09037 14.1692 2.55152 14.8151 2.13185C15.4611 1.71219 16.1994 1.42141 16.9807 1.27901C17.762 1.13662 18.5682 1.1459 19.3452 1.30622C20.1221 1.46655 20.852 1.77423 21.4857 2.20862C22.1194 2.64301 22.6425 3.19408 23.0197 3.82487C23.3969 4.45566 23.6196 5.15159 23.6728 5.866C23.726 6.58041 23.6086 7.29679 23.3283 7.9671C23.0481 8.6374 22.6115 9.24615 22.0478 9.75251L12.5 18.3301L2.95218 9.75369V9.75251ZM22.9768 10.5916C23.6507 9.9863 24.1779 9.26231 24.5251 8.46516C24.8724 7.66802 25.0322 6.81496 24.9946 5.95964C24.957 5.10432 24.7227 4.26524 24.3066 3.49517C23.8904 2.72511 23.3013 2.04072 22.5763 1.48505C21.8514 0.929371 21.0062 0.514435 20.0941 0.266334C19.1819 0.0182318 18.2225 -0.0576683 17.2761 0.0434067C16.3296 0.144482 15.4168 0.420345 14.5948 0.853647C13.7729 1.28695 13.0596 1.86832 12.5 2.56118C11.9403 1.86832 11.2271 1.28695 10.4052 0.853647C9.58323 0.420345 8.67035 0.144482 7.72395 0.0434067C6.77754 -0.0576683 5.81809 0.0182318 4.90592 0.266334C3.99376 0.514435 3.14863 0.929371 2.42367 1.48505C1.69872 2.04072 1.10962 2.72511 0.693443 3.49517C0.277263 4.26524 0.0429982 5.10432 0.00538283 5.95964C-0.0322325 6.81496 0.127615 7.66802 0.474873 8.46516C0.82213 9.26231 1.34929 9.9863 2.02318 10.5916L12.5 20L22.9768 10.5928V10.5916Z" fill="#2F2F30"/>
</svg>
