<svg width="19" height="19" viewBox="0 0 20 19" fill="none" xmlns="http://www.w3.org/2000/svg">
<path d="M7.73272 2.13862e-08C9.11634 -2.9745e-05 10.4709 0.396647 11.6358 1.14297C12.8006 1.88928 13.7269 2.95392 14.3045 4.21056C14.8822 5.46719 15.0871 6.86308 14.8949 8.23262C14.7027 9.60215 14.1215 10.8878 13.2203 11.9371L19.5 18.2138L18.7134 19L12.4325 12.7223C11.5467 13.4794 10.4909 14.0113 9.35514 14.2728C8.21934 14.5342 7.03715 14.5174 5.90925 14.2237C4.78135 13.9301 3.74116 13.3684 2.87728 12.5863C2.01339 11.8043 1.35141 10.8252 0.947698 9.73235C0.543988 8.63951 0.410517 7.46534 0.558651 6.30984C0.706786 5.15434 1.13214 4.05173 1.79848 3.09594C2.46482 2.14015 3.35241 1.35948 4.38566 0.82043C5.4189 0.281378 6.56719 -8.95809e-05 7.73272 2.13862e-08ZM7.73272 1.11209C6.10972 1.11209 4.5532 1.7565 3.40556 2.90356C2.25793 4.05062 1.6132 5.60637 1.6132 7.22856C1.6132 8.85075 2.25793 10.4065 3.40556 11.5536C4.5532 12.7006 6.10972 13.345 7.73272 13.345C9.35572 13.345 10.9122 12.7006 12.0599 11.5536C13.2075 10.4065 13.8522 8.85075 13.8522 7.22856C13.8522 5.60637 13.2075 4.05062 12.0599 2.90356C10.9122 1.7565 9.35572 1.11209 7.73272 1.11209Z" fill="#2F2F30"/>
</svg>
