<svg width="22" height="22" viewBox="0 0 22 22" fill="none" xmlns="http://www.w3.org/2000/svg">
<path d="M11 13.2C17.0749 13.2 22 15.4983 22 18.3333V22H0V18.3333C0 15.4983 4.92507 13.2 11 13.2ZM20.5333 18.3333C20.5333 16.3093 16.2653 14.6667 11 14.6667C5.73467 14.6667 1.46667 16.3093 1.46667 18.3333V20.5333H20.5333V18.3333ZM11 0C12.3614 0 13.6671 0.540832 14.6298 1.50352C15.5925 2.46621 16.1333 3.77189 16.1333 5.13333C16.1333 6.49478 15.5925 7.80046 14.6298 8.76315C13.6671 9.72583 12.3614 10.2667 11 10.2667C9.63856 10.2667 8.33287 9.72583 7.37019 8.76315C6.4075 7.80046 5.86667 6.49478 5.86667 5.13333C5.86667 3.77189 6.4075 2.46621 7.37019 1.50352C8.33287 0.540832 9.63856 0 11 0ZM11 1.46667C10.0275 1.46667 9.09491 1.85298 8.40728 2.54061C7.71964 3.22824 7.33333 4.16087 7.33333 5.13333C7.33333 6.10579 7.71964 7.03842 8.40728 7.72606C9.09491 8.41369 10.0275 8.8 11 8.8C11.9725 8.8 12.9051 8.41369 13.5927 7.72606C14.2804 7.03842 14.6667 6.10579 14.6667 5.13333C14.6667 4.16087 14.2804 3.22824 13.5927 2.54061C12.9051 1.85298 11.9725 1.46667 11 1.46667Z" fill="#2F2F30"/>
</svg>
