<svg width="22" height="23" viewBox="0 0 22 23" fill="none" xmlns="http://www.w3.org/2000/svg">
<path d="M21.125 13.0626C21.1266 12.249 20.9246 11.4479 20.5374 10.7324C20.1501 10.0169 19.59 9.40963 18.9079 8.96605C18.2259 8.52246 17.4437 8.25662 16.6326 8.19277C15.8215 8.12892 15.0073 8.26908 14.2643 8.60048C13.5212 8.93188 12.873 9.44397 12.3785 10.0901C11.8841 10.7362 11.5592 11.4958 11.4335 12.2996C11.3078 13.1035 11.3853 13.926 11.6589 14.6922C11.9325 15.4584 12.3936 16.1439 13 16.6863V22.8126L16.25 21.2745L19.5 22.8126V16.6863C20.0108 16.2308 20.4196 15.6726 20.6996 15.0481C20.9797 14.4236 21.1246 13.747 21.125 13.0626ZM17.875 20.2451L16.25 19.4756L14.625 20.2451V17.6532C15.6751 18.0325 16.8248 18.0325 17.875 17.6532V20.2451ZM16.25 16.3126C15.6072 16.3126 14.9788 16.122 14.4444 15.7649C13.9099 15.4077 13.4934 14.9002 13.2474 14.3063C13.0014 13.7124 12.937 13.059 13.0624 12.4285C13.1878 11.7981 13.4974 11.219 13.9519 10.7645C14.4064 10.31 14.9855 10.0004 15.6159 9.87503C16.2464 9.74963 16.8999 9.81399 17.4937 10.06C18.0876 10.306 18.5952 10.7225 18.9523 11.257C19.3094 11.7914 19.5 12.4198 19.5 13.0626C19.4989 13.9242 19.1562 14.7502 18.5469 15.3595C17.9376 15.9688 17.1116 16.3115 16.25 16.3126Z" fill="#2F2F30"/>
<path d="M4.0625 9.8125H9.75V11.4375H4.0625V9.8125Z" fill="#2F2F30"/>
<path d="M4.0625 4.9375H12.1875V6.5625H4.0625V4.9375Z" fill="#2F2F30"/>
<path d="M1.625 22.8125C1.19416 22.8121 0.78108 22.6407 0.476427 22.3361C0.171773 22.0314 0.0004302 21.6183 0 21.1875V1.6875C0.0004302 1.25666 0.171773 0.84358 0.476427 0.538927C0.78108 0.234273 1.19416 0.0629302 1.625 0.0625H14.625C15.0558 0.0629302 15.4689 0.234273 15.7736 0.538927C16.0782 0.84358 16.2496 1.25666 16.25 1.6875V4.9375H14.625V1.6875H1.625V21.1875H9.75V22.8125H1.625Z" fill="#2F2F30"/>
</svg>
