<svg width="26" height="18" viewBox="0 0 26 18" fill="none" xmlns="http://www.w3.org/2000/svg">
<path d="M0 0V1.63636H15.4375V13.9091H10.4358C10.0734 12.5026 8.81725 11.4545 7.3125 11.4545C5.80775 11.4545 4.55163 12.5026 4.18925 13.9091H3.25V9.81818H1.625V15.5455H4.18925C4.55163 16.9519 5.80775 18 7.3125 18C8.81725 18 10.0734 16.9519 10.4358 15.5455H17.1893C17.5516 16.9519 18.8078 18 20.3125 18C21.8172 18 23.0734 16.9519 23.4357 15.5455H26V8.87236L25.9488 8.74391L24.3238 3.83482L24.1475 3.27273H17.0625V0H0ZM0.8125 3.27273V4.90909H8.125V3.27273H0.8125ZM17.0625 4.90909H22.9783L24.375 9.10227V13.9091H23.4357C23.0734 12.5026 21.8172 11.4545 20.3125 11.4545C18.8078 11.4545 17.5516 12.5026 17.1893 13.9091H17.0625V4.90909ZM1.625 6.54545V8.18182H6.5V6.54545H1.625ZM7.3125 13.0909C8.22006 13.0909 8.9375 13.8134 8.9375 14.7273C8.9375 15.6412 8.22006 16.3636 7.3125 16.3636C6.40494 16.3636 5.6875 15.6412 5.6875 14.7273C5.6875 13.8134 6.40494 13.0909 7.3125 13.0909ZM20.3125 13.0909C21.2201 13.0909 21.9375 13.8134 21.9375 14.7273C21.9375 15.6412 21.2201 16.3636 20.3125 16.3636C19.4049 16.3636 18.6875 15.6412 18.6875 14.7273C18.6875 13.8134 19.4049 13.0909 20.3125 13.0909Z" fill="#2F2F30"/>
</svg>
